<?xml version="1.0" encoding="UTF-8"?><svg id="_レイヤー_2" xmlns="http://www.w3.org/2000/svg" xmlns:xlink="http://www.w3.org/1999/xlink" viewBox="0 0 805.33 144.34"><defs><style>.cls-1{fill:url(#_名称未設定グラデーション_240);}.cls-2{fill:#fff;}</style><linearGradient id="_名称未設定グラデーション_240" x1="15.58" y1="14" x2="129.75" y2="109.81" gradientUnits="userSpaceOnUse"><stop offset="0" stop-color="#005bac"/><stop offset=".42" stop-color="#00b6ee"/><stop offset="1" stop-color="#b5d678"/></linearGradient></defs><g id="_レイヤー_1-2"><g><g><g id="_グループ_113"><path id="_パス_453" class="cls-2" d="M198.91,14.43c4.74-.11,9.24,2.09,12.06,5.9,.56,.72,.44,1.75-.28,2.32-.02,.02-.04,.03-.06,.05l-1.6,1.35c-1.27,1.18-1.69,.34-2.45-.34-1.96-2.23-4.78-3.52-7.75-3.54-6.32,0-11.21,5.23-11.21,11.97s4.81,12.14,11.13,12.14c5.06,0,7-2.53,8.94-4.38,1.01-1.01,1.6-.84,2.53-.17l.93,.67c.81,.47,1.08,1.51,.61,2.32,0,.01-.02,.03-.02,.04-2.78,4.43-7.66,7.11-12.9,7.07-9.57-.02-17.31-7.8-17.29-17.37,0-.08,0-.17,0-.25-.02-9.67,7.7-17.57,17.37-17.79"/><path id="_パス_454" class="cls-2" d="M218.38,17.12c-.51-1.1,0-1.86,1.26-1.86h3.71c.62,0,1.17,.37,1.43,.93l13.18,22.94,11.18-22.94c.28-.54,.82-.9,1.43-.93h3.2c1.27,0,1.86,.84,1.27,1.94l-21.87,46.2c-.27,.56-.81,.94-1.43,1.01h-3.12c-.74,.12-1.44-.38-1.57-1.12-.06-.34,.02-.7,.22-.99l7.58-16.49-16.48-28.7Z"/><path id="_パス_455" class="cls-2" d="M262.7,1.6c.03-.87,.73-1.57,1.6-1.6h2.61c.87,.03,1.57,.73,1.6,1.6v15.02c2.76-1.51,5.87-2.26,9.02-2.19,10.12,0,16.19,7.76,16.19,17.62s-6.75,17.79-15.34,17.79c-3.9-.09-7.62-1.69-10.37-4.47l-.52,2.28c-.09,.74-.69,1.31-1.43,1.35h-1.77c-.87-.03-1.57-.73-1.6-1.6V1.6Zm15.09,42.92c6.15,0,10.03-5.82,10.03-12.39s-3.71-12.06-11.04-12.06c-2.85,.02-5.65,.72-8.18,2.02v16.86s3.12,5.56,9.19,5.56"/><path id="_パス_456" class="cls-2" d="M317.82,14.43c9.36,0,16.78,8.1,16.78,17.62s-7.42,17.79-16.78,17.79-16.78-8.1-16.78-17.79,7.42-17.62,16.78-17.62m0,29.93c6.15,0,10.96-5.48,10.96-12.31s-4.81-12.06-10.96-12.06-10.96,5.4-10.96,12.06,4.81,12.31,10.96,12.31"/><path id="_パス_457" class="cls-2" d="M341.38,46.55l16.52-25.71v-.25h-14.17c-.86-.04-1.53-.75-1.52-1.6v-2.11c-.04-.85,.62-1.56,1.46-1.6,.02,0,.04,0,.06,0h21.16c.83-.08,1.56,.52,1.65,1.34,.03,.33-.04,.65-.21,.93l-16.1,25.88v.25h12.98c.86-.03,1.58,.63,1.61,1.49,0,.04,0,.08,0,.12v2.11c0,.88-.72,1.6-1.6,1.6h-20.24c-.87-.03-1.57-.73-1.6-1.6v-.84Z"/><path id="_パス_458" class="cls-2" d="M374.88,16.87c.03-.87,.73-1.57,1.6-1.6h2.7c.87,.03,1.57,.73,1.6,1.6v17.79c0,6.41,2.87,9.53,7.59,9.53,3.88-.06,7.55-1.82,10.03-4.81V16.87c.03-.87,.73-1.57,1.6-1.6h2.61c.87,.03,1.57,.73,1.6,1.6v30.52c-.03,.87-.73,1.57-1.6,1.6h-1.6c-.93,0-1.26-.59-1.52-1.43l-.59-2.19c-2.91,2.89-6.86,4.5-10.96,4.47-9.78,0-13.07-6.32-13.07-15.26V16.87Z"/></g><g id="_グループ_111-2"><path id="_パス_459" class="cls-2" d="M198.3,93.85c3.26-.07,6.48,.71,9.34,2.27v-14.65c.03-.9,.76-1.63,1.66-1.66h2.7c.9,.03,1.63,.75,1.66,1.66v46.52c-.03,.9-.75,1.63-1.66,1.66h-1.83c-.77-.04-1.4-.63-1.48-1.4l-.52-2.36c-2.84,2.87-6.69,4.53-10.73,4.63-8.9,0-15.88-8.38-15.88-18.42s6.28-18.25,16.76-18.25m-.26,31.16c6.28,0,9.51-5.76,9.51-5.76v-17.45c-2.62-1.35-5.52-2.07-8.46-2.09-7.59,0-11.43,5.5-11.43,12.48s4.01,12.83,10.39,12.83"/><path id="_パス_460" class="cls-2" d="M238.97,93.86c8.51-.22,15.58,6.5,15.8,15.01,0,.32,0,.64,0,.97-.01,.79-.07,1.57-.17,2.36-.06,.83-.74,1.47-1.57,1.48h-25.14c.35,5.85,5.5,11.34,11.69,11.34,3.07-.06,6.05-.96,8.64-2.62,1.22-.7,1.75-1.13,2.44-.17,.52,.7,.96,1.31,1.48,2.01,.61,.78,.96,1.31-.35,2.27-3.74,2.66-8.24,4.07-12.83,4.01-10.56,0-17.11-8.29-17.11-18.33s6.55-18.33,17.11-18.33m9.77,14.92c-.25-5.26-4.51-9.44-9.77-9.6-5.59-.11-10.35,4.04-11,9.6h20.77Z"/><path id="_パス_461" class="cls-2" d="M261.23,96.74c-.52-1.13,0-2.01,1.31-2.01h2.71c.67-.02,1.28,.36,1.57,.96l10.82,24.96h.09l11.52-24.96c.27-.58,.85-.95,1.48-.96h2.27c1.31,0,1.83,.87,1.31,2.01l-14.92,32.91c-.27,.56-.86,.91-1.48,.87h-.44c-.63,.04-1.21-.31-1.48-.87l-14.75-32.9Z"/><path id="_パス_462" class="cls-2" d="M316.48,93.86c8.51-.22,15.58,6.5,15.8,15.01,0,.32,0,.64,0,.97-.01,.79-.07,1.57-.17,2.36-.06,.83-.74,1.47-1.57,1.48h-25.14c.35,5.85,5.5,11.34,11.69,11.34,3.07-.06,6.05-.96,8.64-2.62,1.22-.7,1.75-1.13,2.44-.17,.52,.7,.96,1.31,1.48,2.01,.61,.78,.96,1.31-.35,2.27-3.74,2.66-8.24,4.07-12.83,4.01-10.56,0-17.11-8.29-17.11-18.33s6.55-18.33,17.11-18.33m9.77,14.92c-.25-5.26-4.51-9.44-9.77-9.6-5.59-.11-10.35,4.04-11,9.6h20.77Z"/><rect id="_長方形_34" class="cls-2" x="343.62" y="82.62" width="6.02" height="46.92" rx="1.59" ry="1.59"/><path id="_パス_463" class="cls-2" d="M376.96,93.87c9.69,0,17.37,8.38,17.37,18.24s-7.68,18.42-17.37,18.42-17.37-8.38-17.37-18.42,7.68-18.24,17.37-18.24m0,30.98c6.37,0,11.35-5.67,11.35-12.74s-4.98-12.48-11.35-12.48-11.34,5.59-11.34,12.48,4.98,12.74,11.34,12.74"/><path id="_パス_464" class="cls-2" d="M408.89,142.68c-.03,.9-.76,1.63-1.66,1.66h-2.71c-.9-.03-1.63-.76-1.66-1.66v-46.28c.03-.9,.76-1.63,1.66-1.66h1.83c.79,0,1.05,.26,1.4,1.14l.61,1.66c2.83-2.39,6.42-3.69,10.12-3.67,9.51,0,16.5,8.38,16.5,18.42s-7.15,18.24-16.76,18.24c-3.34,.05-6.61-.96-9.34-2.88v15.04Zm8.56-17.7c6.72,0,11.43-5.5,11.43-12.48s-4.01-12.83-11-12.83c-3.45,.06-6.7,1.62-8.91,4.28v17.98c2.43,1.88,5.39,2.95,8.47,3.06"/><path id="_パス_465" class="cls-2" d="M459.48,93.82c8.51-.22,15.58,6.5,15.8,15.01,0,.32,0,.64,0,.96-.01,.79-.07,1.57-.17,2.36-.06,.83-.74,1.47-1.57,1.48h-25.14c.35,5.85,5.5,11.34,11.69,11.34,3.07-.06,6.05-.96,8.64-2.62,1.22-.7,1.75-1.13,2.44-.17,.52,.7,.96,1.31,1.48,2.01,.61,.78,.96,1.31-.35,2.27-3.74,2.66-8.24,4.07-12.83,4.01-10.56,0-17.11-8.29-17.11-18.33s6.55-18.33,17.11-18.33m9.77,14.92c-.25-5.26-4.51-9.44-9.77-9.6-5.59-.11-10.35,4.04-11,9.6h20.77Z"/><path id="_パス_466" class="cls-2" d="M484.73,96.35c.03-.9,.76-1.63,1.66-1.66h1.66c.73-.01,1.36,.51,1.48,1.22l.7,2.53c2.58-3.09,6.45-4.8,10.47-4.63,2.62,0,6.98,.44,6.11,2.88l-1.05,2.97c-.44,1.13-1.22,1.13-2.09,.79-1.08-.45-2.24-.69-3.4-.7-3.79-.09-7.37,1.75-9.51,4.89v23.3c-.03,.9-.76,1.63-1.66,1.66h-2.71c-.9-.03-1.63-.76-1.66-1.66v-31.59Z"/></g><g id="_グループ_112"><path id="_パス_467" class="cls-2" d="M536.11,94.68c.03-.9,.76-1.63,1.66-1.66h1.66c.67-.08,1.28,.38,1.4,1.05l.79,2.71c3.42-2.9,7.73-4.54,12.22-4.63,10.12,0,13.53,6.63,13.53,15.71v18.42c-.03,.9-.76,1.63-1.66,1.66h-2.79c-.9-.03-1.63-.76-1.66-1.66v-18.42c0-6.63-2.97-9.86-7.85-9.86-6.55,0-11.26,4.98-11.26,4.98v23.3c-.03,.9-.76,1.63-1.66,1.66h-2.71c-.9-.03-1.63-.76-1.66-1.66v-31.59Z"/><path id="_パス_468" class="cls-2" d="M592.47,92.15c8.51-.22,15.58,6.5,15.8,15.01,0,.32,0,.64,0,.96-.01,.79-.07,1.57-.17,2.35-.06,.83-.74,1.47-1.57,1.48h-25.14c.35,5.85,5.5,11.35,11.69,11.35,3.07-.06,6.05-.96,8.64-2.62,1.22-.7,1.75-1.13,2.44-.17,.52,.69,.96,1.31,1.48,2.01,.61,.79,.96,1.31-.35,2.27-3.74,2.66-8.24,4.07-12.83,4.02-10.56,0-17.11-8.29-17.11-18.33s6.55-18.33,17.11-18.33m9.78,14.92c-.25-5.26-4.51-9.44-9.77-9.6-5.59-.11-10.35,4.04-11,9.6h20.77Z"/><path id="_パス_469" class="cls-2" d="M620.37,98.26h-4.45c-.91,0-1.66-.74-1.66-1.65,0,0,0,0,0,0v-1.92c-.03-.89,.66-1.63,1.55-1.66,.04,0,.07,0,.11,0h4.45v-9.69c.03-.9,.76-1.63,1.66-1.66l2.79-.17c.89,.04,1.58,.77,1.57,1.66v9.86h10.12c.89-.03,1.63,.66,1.66,1.55,0,.04,0,.07,0,.11v1.92c0,.92-.74,1.66-1.66,1.66h-10.12v20.42c0,3.49,.87,4.18,2.88,4.18,2.23-.2,4.4-.86,6.37-1.92,1.31-.7,1.66-.17,2.09,.52l1.31,2.18c.61,1.05,.35,1.57-.61,2.18-3.07,1.75-6.51,2.77-10.04,2.97-6.98,0-8.03-4.18-8.03-9.6v-20.94Z"/><path id="_パス_470" class="cls-2" d="M646.38,95.03c-.35-1.22,0-2.01,1.31-2.01h2.71c.67-.04,1.3,.34,1.57,.96l6.37,23.04h.09l9.86-24c.27-.56,.86-.91,1.48-.87h.43c.63-.04,1.21,.31,1.48,.87l9.77,24.09h.09l6.28-23.13c.25-.59,.84-.98,1.48-.96h2.71c1.31,0,1.66,.79,1.31,2.01l-9.51,32.9c-.26,.57-.86,.92-1.48,.87h-.44c-.63,.04-1.21-.31-1.48-.87l-10.65-26.18-10.3,26.18c-.27,.57-.86,.91-1.48,.87h-.44c-.63,.07-1.24-.28-1.48-.87l-9.68-32.91Z"/><path id="_パス_471" class="cls-2" d="M717.26,92.15c9.69,0,17.37,8.38,17.37,18.24s-7.68,18.42-17.37,18.42-17.37-8.38-17.37-18.42,7.68-18.24,17.37-18.24m0,30.98c6.37,0,11.35-5.67,11.35-12.74s-4.98-12.48-11.35-12.48-11.34,5.59-11.34,12.48,4.98,12.74,11.34,12.74"/><path id="_パス_472" class="cls-2" d="M744.49,94.68c.03-.9,.76-1.63,1.66-1.66h1.66c.73-.01,1.36,.51,1.48,1.22l.7,2.53c2.58-3.09,6.45-4.8,10.47-4.63,2.62,0,6.98,.44,6.11,2.88l-1.05,2.97c-.44,1.13-1.22,1.13-2.09,.79-1.08-.45-2.24-.69-3.4-.7-3.79-.09-7.37,1.75-9.51,4.89v23.3c-.03,.9-.76,1.63-1.66,1.66h-2.71c-.9-.03-1.63-.76-1.66-1.66v-31.6Z"/><path id="_パス_473" class="cls-2" d="M773.73,79.76c.03-.9,.76-1.63,1.66-1.66h2.71c.9,.03,1.63,.76,1.66,1.66v26.53l14.84-12.21c.55-.58,1.29-.96,2.09-1.05h4.71c1.48,0,1.4,1.66,.79,2.18l-16.59,13.26,19.3,17.28c.52,.44,.59,1.22,.14,1.75-.25,.3-.63,.46-1.02,.44h-4.8c-.64-.04-1.26-.28-1.75-.7l-17.72-16.85v15.89c-.03,.9-.76,1.63-1.66,1.66h-2.71c-.9-.03-1.63-.76-1.66-1.66v-46.52Z"/></g></g><path class="cls-1" d="M98.01,135.15c-2.06,0-4.03-.86-5.45-2.35v.02c-4.33-4.34-10.18-6.83-16.32-6.94h-.05c-3.73,0-6.91-2.72-7.46-6.42-.16-1.09-.08-2.21,.23-3.27v.02c1.59-5.93,.81-12.26-2.18-17.62l.03,.02c-2.12-3.57-.94-8.18,2.63-10.3,.65-.38,1.35-.67,2.09-.84h-.02c5.94-1.59,11.02-5.42,14.19-10.68v.03c1.17-2.08,3.27-3.48,5.64-3.77,.3-.04,.61-.06,.92-.06,.94,0,1.87,.18,2.75,.52,1.02,.41,1.94,1.03,2.7,1.83v-.02c4.32,4.35,10.17,6.84,16.31,6.94h.06c4.16,0,7.53,3.36,7.54,7.51,0,.73-.1,1.46-.31,2.16l.02-.03c-1.6,5.94-.82,12.26,2.16,17.64l-.02-.02c2.12,3.57,.94,8.18-2.63,10.3-.65,.38-1.35,.67-2.08,.84h.02c-5.94,1.58-11.03,5.42-14.2,10.69v-.03c-1.16,2.09-3.25,3.49-5.63,3.78-.31,.04-.61,.06-.92,.06m-2.86-49.39c-.75,0-1.51,.05-2.26,.14-10.03,1.23-17.16,10.36-15.93,20.39,1.23,10.03,10.36,17.16,20.39,15.93,10.03-1.23,17.16-10.36,15.93-20.39-1.12-9.16-8.9-16.06-18.13-16.07m-55.22,12.01c-3.39,0-6.59-1.6-8.6-4.34v.03c-2.68-3.39-5.97-6.26-9.69-8.46-3.77-2.13-7.89-3.54-12.17-4.18h.03c-5.86-.66-10.08-5.95-9.42-11.81,.12-1.06,.4-2.1,.83-3.08l-.03,.03c1.59-4.02,2.42-8.3,2.46-12.63-.04-4.32-.87-8.6-2.45-12.63l.03,.04c-2.37-5.41,.1-11.72,5.51-14.08,.98-.43,2.01-.71,3.07-.83h-.04c4.28-.64,8.4-2.05,12.17-4.18,3.73-2.2,7.01-5.06,9.7-8.45v.04c3.16-4.3,9.01-5.6,13.7-3.06,1.37,.75,2.56,1.79,3.49,3.05v-.03c2.68,3.39,5.97,6.25,9.69,8.45,3.77,2.13,7.89,3.55,12.17,4.18h-.04c5.87,.66,10.09,5.95,9.42,11.82-.12,1.07-.4,2.11-.83,3.09l.03-.04c-3.28,8.1-3.29,17.15,0,25.25l-.03-.04c2.37,5.41-.1,11.71-5.5,14.08-.98,.43-2.02,.71-3.09,.83h.04c-8.65,1.21-16.5,5.73-21.87,12.63l.02-.05c-2.01,2.75-5.21,4.37-8.61,4.36m0-71.84c-15.13,0-27.4,12.27-27.4,27.4,0,15.13,12.27,27.4,27.4,27.4,15.13,0,27.4-12.27,27.4-27.4,0-7.27-2.89-14.24-8.02-19.38-5.14-5.14-12.11-8.02-19.38-8.02h0Zm90.92,60.03c-1.68,0-3.26-.8-4.26-2.15v.02c-1.34-1.68-2.97-3.09-4.81-4.19-1.87-1.05-3.91-1.76-6.03-2.07h.02c-2.91-.33-5-2.96-4.67-5.87,.06-.52,.2-1.04,.41-1.52h-.01c.78-1.98,1.2-4.1,1.23-6.25-.02-2.14-.43-4.26-1.22-6.26v.02c-1.16-2.68,.05-5.8,2.73-6.98,.49-.22,1.01-.35,1.54-.41h-.02c4.29-.6,8.18-2.84,10.84-6.26,1.74-2.35,5.06-2.85,7.41-1.11,.43,.31,.8,.69,1.12,1.12v-.02c1.34,1.68,2.97,3.09,4.81,4.19,1.87,1.06,3.91,1.76,6.03,2.07h-.02c2.91,.33,5,2.95,4.67,5.86-.06,.53-.2,1.04-.41,1.53v-.02c-.77,2-1.19,4.12-1.21,6.26,.02,2.14,.44,4.27,1.23,6.26v-.02c1.16,2.68-.06,5.81-2.74,6.98-.49,.21-1,.35-1.53,.41h.02c-4.29,.6-8.18,2.84-10.84,6.26h.01c-1,1.35-2.59,2.15-4.27,2.15m0-34.07c-6.65,0-12.04,5.39-12.04,12.03,0,6.65,5.39,12.04,12.03,12.04,6.65,0,12.04-5.39,12.04-12.03h0c0-6.65-5.39-12.04-12.03-12.04h0Zm-90.5-8.63h0c-5.83,0-10.55,4.73-10.55,10.55h0c0,5.83,4.73,10.55,10.55,10.55,5.83,0,10.55-4.73,10.55-10.55,0-5.83-4.73-10.55-10.55-10.55m54.87,54.88c-3.5,0-6.33,2.83-6.33,6.33h0c0,3.5,2.83,6.33,6.33,6.33s6.33-2.83,6.33-6.33-2.83-6.33-6.33-6.33m35.88-37.99c-2.33,0-4.22,1.89-4.22,4.22h0c0,2.33,1.89,4.22,4.22,4.22s4.22-1.89,4.22-4.22-1.89-4.22-4.22-4.22"/></g></g></svg>